<mxfile host="Electron" modified="2023-10-28T21:45:33.179Z" agent="Mozilla/5.0 (Windows NT 10.0; Win64; x64) AppleWebKit/537.36 (KHTML, like Gecko) draw.io/21.6.8 Chrome/114.0.5735.289 Electron/25.5.0 Safari/537.36" etag="-5KRvIwdX5KG2MNwacEU" version="21.6.8" type="device">
  <diagram id="8EavyDK-nSgNIi7KOvIC" name="PÃ¡gina-1">
    <mxGraphModel dx="1418" dy="870" grid="1" gridSize="1" guides="1" tooltips="1" connect="1" arrows="1" fold="1" page="1" pageScale="1" pageWidth="4681" pageHeight="3300" math="1" shadow="0">
      <root>
        <mxCell id="0" />
        <mxCell id="1" parent="0" />
        <mxCell id="iU76KhbwHvruE9WV6AzS-15" value="" style="ellipse;whiteSpace=wrap;html=1;aspect=fixed;fontSize=16;fillColor=#000033;" parent="1" vertex="1">
          <mxGeometry x="567" y="710" width="5" height="5" as="geometry" />
        </mxCell>
        <mxCell id="pyv6_lZ1-DydoKUBr6Xs-1" value="" style="endArrow=classic;html=1;rounded=0;fillColor=#dae8fc;strokeColor=#6c8ebf;fontSize=40;jumpSize=15;endSize=11;startSize=10;strokeWidth=3;shadow=1;gradientColor=#7ea6e0;" parent="1" edge="1">
          <mxGeometry width="50" height="50" relative="1" as="geometry">
            <mxPoint x="420" y="410" as="sourcePoint" />
            <mxPoint x="630" y="275" as="targetPoint" />
          </mxGeometry>
        </mxCell>
        <mxCell id="pyv6_lZ1-DydoKUBr6Xs-2" value="$$Q$$" style="text;html=1;strokeColor=none;fillColor=none;align=center;verticalAlign=middle;whiteSpace=wrap;rounded=0;fontSize=32;" parent="1" vertex="1">
          <mxGeometry x="610" y="280" width="70" height="30" as="geometry" />
        </mxCell>
        <mxCell id="pyv6_lZ1-DydoKUBr6Xs-3" value="$$P$$" style="text;html=1;strokeColor=none;fillColor=none;align=center;verticalAlign=middle;whiteSpace=wrap;rounded=0;fontSize=32;" parent="1" vertex="1">
          <mxGeometry x="420" y="410" width="60" height="30" as="geometry" />
        </mxCell>
        <mxCell id="pyv6_lZ1-DydoKUBr6Xs-4" value="$$\vec{PQ}$$" style="text;html=1;strokeColor=none;fillColor=none;align=center;verticalAlign=middle;whiteSpace=wrap;rounded=0;fontSize=32;" parent="1" vertex="1">
          <mxGeometry x="490" y="290" width="60" height="30" as="geometry" />
        </mxCell>
        <mxCell id="iU76KhbwHvruE9WV6AzS-2" value="$$Q$$" style="text;html=1;strokeColor=none;fillColor=none;align=center;verticalAlign=middle;whiteSpace=wrap;rounded=0;fontSize=19;" parent="1" vertex="1">
          <mxGeometry x="733" y="698" width="24" height="30" as="geometry" />
        </mxCell>
        <mxCell id="iU76KhbwHvruE9WV6AzS-3" value="$$P$$" style="text;html=1;strokeColor=none;fillColor=none;align=center;verticalAlign=middle;whiteSpace=wrap;rounded=0;fontSize=19;" parent="1" vertex="1">
          <mxGeometry x="510" y="830" width="60" height="30" as="geometry" />
        </mxCell>
        <mxCell id="iU76KhbwHvruE9WV6AzS-4" value="$$\vec{PQ}$$" style="text;html=1;strokeColor=none;fillColor=none;align=center;verticalAlign=middle;whiteSpace=wrap;rounded=0;fontSize=15;rotation=328;" parent="1" vertex="1">
          <mxGeometry x="618" y="727" width="60" height="30" as="geometry" />
        </mxCell>
        <mxCell id="iU76KhbwHvruE9WV6AzS-5" value="" style="endArrow=classic;html=1;rounded=0;fillColor=#dae8fc;strokeColor=#6c8ebf;fontSize=40;jumpSize=15;endSize=11;startSize=10;strokeWidth=3;shadow=1;gradientColor=#7ea6e0;startArrow=none;entryX=0.714;entryY=0.767;entryDx=0;entryDy=0;entryPerimeter=0;" parent="1" source="iU76KhbwHvruE9WV6AzS-11" target="iU76KhbwHvruE9WV6AzS-6" edge="1">
          <mxGeometry x="0.2256" y="24" width="50" height="50" relative="1" as="geometry">
            <mxPoint x="530" y="835" as="sourcePoint" />
            <mxPoint x="570" y="710" as="targetPoint" />
            <mxPoint as="offset" />
          </mxGeometry>
        </mxCell>
        <mxCell id="iU76KhbwHvruE9WV6AzS-6" value="$$R$$" style="text;html=1;strokeColor=none;fillColor=none;align=center;verticalAlign=middle;whiteSpace=wrap;rounded=0;fontSize=19;" parent="1" vertex="1">
          <mxGeometry x="520" y="690" width="70" height="30" as="geometry" />
        </mxCell>
        <mxCell id="iU76KhbwHvruE9WV6AzS-7" value="" style="endArrow=none;html=1;rounded=0;fillColor=#dae8fc;strokeColor=#B3B3B3;fontSize=40;jumpSize=15;endSize=11;startSize=10;strokeWidth=3;shadow=0;gradientColor=#7ea6e0;dashed=1;dashPattern=1 2;startArrow=none;endFill=0;" parent="1" source="iU76KhbwHvruE9WV6AzS-15" edge="1">
          <mxGeometry width="50" height="50" relative="1" as="geometry">
            <mxPoint x="568" y="714" as="sourcePoint" />
            <mxPoint x="778" y="579" as="targetPoint" />
          </mxGeometry>
        </mxCell>
        <mxCell id="iU76KhbwHvruE9WV6AzS-8" value="" style="endArrow=none;html=1;rounded=0;fillColor=#dae8fc;strokeColor=#B3B3B3;fontSize=40;jumpSize=15;endSize=11;startSize=10;strokeWidth=3;shadow=0;gradientColor=#7ea6e0;dashed=1;dashPattern=1 4;startArrow=none;endFill=0;" parent="1" source="iU76KhbwHvruE9WV6AzS-13" edge="1">
          <mxGeometry x="0.2256" y="24" width="50" height="50" relative="1" as="geometry">
            <mxPoint x="737" y="704" as="sourcePoint" />
            <mxPoint x="777" y="579" as="targetPoint" />
            <mxPoint as="offset" />
          </mxGeometry>
        </mxCell>
        <mxCell id="iU76KhbwHvruE9WV6AzS-9" value="" style="endArrow=classic;html=1;rounded=0;fillColor=#f8cecc;strokeColor=#FF3333;fontSize=40;jumpSize=15;endSize=11;startSize=10;strokeWidth=3;shadow=1;gradientColor=#ea6b66;" parent="1" edge="1">
          <mxGeometry width="50" height="50" relative="1" as="geometry">
            <mxPoint x="531" y="833" as="sourcePoint" />
            <mxPoint x="779" y="579" as="targetPoint" />
          </mxGeometry>
        </mxCell>
        <mxCell id="iU76KhbwHvruE9WV6AzS-10" value="$$\vec{PR}$$" style="text;html=1;strokeColor=none;fillColor=none;align=center;verticalAlign=middle;whiteSpace=wrap;rounded=0;fontSize=15;rotation=287;" parent="1" vertex="1">
          <mxGeometry x="511" y="751" width="57" height="24" as="geometry" />
        </mxCell>
        <mxCell id="iU76KhbwHvruE9WV6AzS-12" value="" style="endArrow=none;html=1;rounded=0;fillColor=#dae8fc;strokeColor=#6c8ebf;fontSize=40;jumpSize=15;endSize=11;startSize=10;strokeWidth=3;shadow=0;gradientColor=#7ea6e0;" parent="1" target="iU76KhbwHvruE9WV6AzS-11" edge="1">
          <mxGeometry x="0.2256" y="24" width="50" height="50" relative="1" as="geometry">
            <mxPoint x="530" y="835" as="sourcePoint" />
            <mxPoint x="570" y="710" as="targetPoint" />
            <mxPoint as="offset" />
          </mxGeometry>
        </mxCell>
        <mxCell id="iU76KhbwHvruE9WV6AzS-13" value="" style="ellipse;whiteSpace=wrap;html=1;aspect=fixed;fontSize=16;fillColor=#000033;" parent="1" vertex="1">
          <mxGeometry x="736" y="699" width="5" height="5" as="geometry" />
        </mxCell>
        <mxCell id="iU76KhbwHvruE9WV6AzS-14" value="" style="endArrow=none;html=1;rounded=0;fillColor=#dae8fc;strokeColor=#B3B3B3;fontSize=40;jumpSize=15;endSize=11;startSize=10;strokeWidth=3;shadow=0;gradientColor=#7ea6e0;dashed=1;dashPattern=1 4;" parent="1" target="iU76KhbwHvruE9WV6AzS-13" edge="1">
          <mxGeometry x="0.2256" y="24" width="50" height="50" relative="1" as="geometry">
            <mxPoint x="737" y="704" as="sourcePoint" />
            <mxPoint x="777" y="579" as="targetPoint" />
            <mxPoint as="offset" />
          </mxGeometry>
        </mxCell>
        <mxCell id="iU76KhbwHvruE9WV6AzS-1" value="" style="endArrow=classic;html=1;rounded=0;fillColor=#dae8fc;strokeColor=#6c8ebf;fontSize=40;jumpSize=15;endSize=11;startSize=10;strokeWidth=3;shadow=1;gradientColor=#7ea6e0;entryX=0.5;entryY=0.6;entryDx=0;entryDy=0;entryPerimeter=0;" parent="1" target="iU76KhbwHvruE9WV6AzS-13" edge="1">
          <mxGeometry width="50" height="50" relative="1" as="geometry">
            <mxPoint x="530" y="835" as="sourcePoint" />
            <mxPoint x="738" y="703" as="targetPoint" />
          </mxGeometry>
        </mxCell>
        <mxCell id="iU76KhbwHvruE9WV6AzS-11" value="" style="ellipse;whiteSpace=wrap;html=1;aspect=fixed;fontSize=16;fillColor=#000033;" parent="1" vertex="1">
          <mxGeometry x="529" y="831" width="5" height="5" as="geometry" />
        </mxCell>
        <mxCell id="iU76KhbwHvruE9WV6AzS-16" value="" style="endArrow=none;html=1;rounded=0;fillColor=#dae8fc;strokeColor=#B3B3B3;fontSize=40;jumpSize=15;endSize=11;startSize=10;strokeWidth=3;shadow=0;gradientColor=#7ea6e0;dashed=1;dashPattern=1 2;" parent="1" target="iU76KhbwHvruE9WV6AzS-15" edge="1">
          <mxGeometry width="50" height="50" relative="1" as="geometry">
            <mxPoint x="568" y="714" as="sourcePoint" />
            <mxPoint x="778" y="579" as="targetPoint" />
          </mxGeometry>
        </mxCell>
        <mxCell id="iU76KhbwHvruE9WV6AzS-17" value="" style="ellipse;whiteSpace=wrap;html=1;aspect=fixed;fontSize=16;fillColor=#000033;" parent="1" vertex="1">
          <mxGeometry x="776" y="578" width="5" height="5" as="geometry" />
        </mxCell>
        <mxCell id="iU76KhbwHvruE9WV6AzS-18" value="$$\vec{PQ}+\vec{PR}&lt;br style=&quot;font-size: 15px;&quot;&gt;$$" style="text;html=1;strokeColor=none;fillColor=none;align=center;verticalAlign=middle;whiteSpace=wrap;rounded=0;fontSize=15;rotation=314;" parent="1" vertex="1">
          <mxGeometry x="612" y="684" width="60" height="30" as="geometry" />
        </mxCell>
      </root>
    </mxGraphModel>
  </diagram>
</mxfile>
